<svg width="58" height="58" viewBox="0 0 58 58" fill="none" xmlns="http://www.w3.org/2000/svg">
<circle cx="29" cy="29" r="29" fill="#333333"/>
<path fill-rule="evenodd" clip-rule="evenodd" d="M29 17C31.7614 17 34 14.7614 34 12C34 9.23858 31.7614 7 29 7C26.2386 7 24 9.23858 24 12C24 14.7614 26.2386 17 29 17ZM17.9537 27.7945L22.6192 24.065V30.4531L35.3869 30.4531V24.0145L40.1176 27.7961C40.8282 28.3641 41.8917 28.2712 42.4931 27.5887C43.0944 26.9062 43.0059 25.8925 42.2954 25.3245L35.1153 19.585C34.837 19.3625 34.5046 19.2415 34.1671 19.2174C34.03 19.1805 33.8859 19.1609 33.7372 19.1609H24.2689C24.1209 19.1609 23.9775 19.1804 23.841 19.2169C23.5217 19.2494 23.2095 19.3691 22.9459 19.5798L15.7699 25.3161C15.0582 25.885 14.9708 26.9017 15.5732 27.5853C16.1755 28.2689 17.242 28.3633 17.9537 27.7945ZM21.8468 35.1848C22.0218 34.9789 22.2383 34.8242 22.4753 34.723L25.4447 37.5223C25.3913 37.6218 25.3263 37.7176 25.2495 37.808L23.0338 40.4154L26.2565 43.4849C26.9162 44.1133 26.9162 45.1321 26.2565 45.7605L25.7364 46.2559C25.0767 46.8842 24.007 46.8842 23.3473 46.2559L19.2538 42.3569C19.2283 42.3326 19.2036 42.3076 19.18 42.2821L18.4538 41.7222C17.7322 41.1659 17.6256 40.1522 18.2156 39.4579L21.8468 35.1848ZM32.8072 37.808C32.7222 37.708 32.6517 37.6013 32.5953 37.4903L35.5463 34.7084C35.7969 34.8091 36.0264 34.9687 36.2099 35.1848L39.8412 39.4579C40.4312 40.1522 40.3245 41.1659 39.6029 41.7222L39.1205 42.0941C39.0922 42.1256 39.0624 42.1563 39.0311 42.1861L34.9376 46.085C34.2779 46.7134 33.2083 46.7134 32.5485 46.085L32.0215 45.5831C31.3618 44.9547 31.3618 43.9359 32.0215 43.3075L35.0386 40.4338L32.8072 37.808Z" fill="white"/>
</svg>
