<svg width="62" height="62" viewBox="0 0 62 62" fill="none" xmlns="http://www.w3.org/2000/svg">
<g opacity="0.5">
<circle cx="30.6436" cy="30.6238" r="29" fill="#333333" stroke="white" stroke-width="3"/>
<path fill-rule="evenodd" clip-rule="evenodd" d="M30.6436 18.6238C33.405 18.6238 35.6436 16.3852 35.6436 13.6238C35.6436 10.8624 33.405 8.62378 30.6436 8.62378C27.8821 8.62378 25.6436 10.8624 25.6436 13.6238C25.6436 16.3852 27.8821 18.6238 30.6436 18.6238ZM19.5972 29.4182L24.2628 25.6888V32.0769L37.0304 32.0769V25.6383L41.7612 29.4199C42.4717 29.9879 43.5352 29.895 44.1366 29.2125C44.738 28.53 44.6495 27.5163 43.939 26.9483L36.7588 21.2087C36.4806 20.9863 36.1482 20.8652 35.8106 20.8412C35.6736 20.8043 35.5295 20.7847 35.3808 20.7847H25.9124C25.7645 20.7847 25.621 20.8041 25.4846 20.8407C25.1653 20.8732 24.853 20.9929 24.5895 21.2036L17.4134 26.9398C16.7018 27.5087 16.6144 28.5255 17.2167 29.2091C17.8191 29.8927 18.8856 29.9871 19.5972 29.4182ZM23.4904 36.8085C23.6653 36.6027 23.8819 36.448 24.1188 36.3468L27.0883 39.1461C27.0349 39.2456 26.9699 39.3414 26.8931 39.4318L24.6773 42.0392L27.9 45.1087C28.5598 45.7371 28.5598 46.7559 27.9 47.3843L27.38 47.8796C26.7202 48.508 25.6506 48.508 24.9909 47.8796L20.8974 43.9807C20.8718 43.9563 20.8472 43.9314 20.8236 43.9059L20.0974 43.346C19.3758 42.7897 19.2691 41.7759 19.8591 41.0817L23.4904 36.8085ZM34.4508 39.4318C34.3658 39.3317 34.2952 39.2251 34.2389 39.1141L37.1898 36.3322C37.4405 36.4329 37.6699 36.5925 37.8535 36.8085L41.4847 41.0817C42.0747 41.7759 41.9681 42.7897 41.2465 43.346L40.7641 43.7179C40.7358 43.7494 40.7059 43.7801 40.6746 43.8099L36.5812 47.7088C35.9215 48.3372 34.8518 48.3372 34.1921 47.7088L33.6651 47.2068C33.0054 46.5785 33.0054 45.5597 33.6651 44.9313L36.6822 42.0576L34.4508 39.4318Z" fill="white"/>
</g>
</svg>
