<svg width="58" height="58" viewBox="0 0 58 58" fill="none" xmlns="http://www.w3.org/2000/svg">
<circle cx="29" cy="29" r="29" fill="#333333"/>
<path d="M25.1335 16C28.0116 18.0377 29.4243 21.133 29.5543 23.8445C29.6775 21.1516 31.0451 18.1503 33.8665 16C37.8719 12.9474 45.0945 16.5088 43.847 24.6491C42.5994 32.7895 29.708 44.4912 29.2921 45C28.8762 44.4912 16.4006 32.7895 15.1531 24.6491C13.9055 16.5088 20.8219 12.9474 25.1335 16Z" fill="#E11010" stroke="white" stroke-width="3" stroke-linejoin="round"/>
<path d="M25.1335 16C28.0116 18.0377 29.4243 21.133 29.5543 23.8445C29.6775 21.1516 31.0451 18.1503 33.8665 16C37.8719 12.9474 45.0945 16.5088 43.847 24.6491C42.5994 32.7895 29.708 44.4912 29.2921 45C28.8762 44.4912 16.4006 32.7895 15.1531 24.6491C13.9055 16.5088 20.8219 12.9474 25.1335 16Z" fill="white" stroke="#E11010" stroke-width="3" stroke-linejoin="round"/>
</svg>
