<svg width="62" height="62" viewBox="0 0 62 62" fill="none" xmlns="http://www.w3.org/2000/svg">
<g opacity="0.5">
<circle cx="31" cy="31" r="29" fill="#333333" stroke="white" stroke-width="3"/>
<path d="M27.1335 18C30.0116 20.0377 31.4242 23.133 31.5543 25.8445C31.6774 23.1516 33.0451 20.1503 35.8665 18C39.8719 14.9474 47.0945 18.5088 45.8469 26.6491C44.5994 34.7895 31.7079 46.4912 31.292 47C30.8761 46.4912 18.4006 34.7895 17.153 26.6491C15.9055 18.5088 22.8219 14.9474 27.1335 18Z" fill="#E11010" stroke="white" stroke-width="3" stroke-linejoin="round"/>
<path d="M27.1335 18C30.0116 20.0377 31.4242 23.133 31.5543 25.8445C31.6774 23.1516 33.0451 20.1503 35.8665 18C39.8719 14.9474 47.0945 18.5088 45.8469 26.6491C44.5994 34.7895 31.7079 46.4912 31.292 47C30.8761 46.4912 18.4006 34.7895 17.153 26.6491C15.9055 18.5088 22.8219 14.9474 27.1335 18Z" fill="white" stroke="#E11010" stroke-width="3" stroke-linejoin="round"/>
</g>
</svg>
