<svg width="58" height="58" viewBox="0 0 58 58" fill="none" xmlns="http://www.w3.org/2000/svg">
<circle cx="29" cy="29" r="29" fill="#333333"/>
<circle cx="29" cy="29" r="24" stroke="#FF6060" stroke-width="3"/>
<path d="M27.8164 47.7969V43.3828C26.8789 43.3698 25.9935 43.1875 25.1602 42.8359C24.3268 42.4714 23.6042 41.9831 22.9922 41.3711C22.3802 40.7461 21.8919 40.0169 21.5273 39.1836C21.1758 38.3503 21 37.4583 21 36.5078V35.3945L23.5195 34.9844V36.5078C23.5195 37.1198 23.6302 37.6927 23.8516 38.2266C24.0729 38.7604 24.3789 39.2292 24.7695 39.6328C25.1602 40.0365 25.6159 40.362 26.1367 40.6094C26.6576 40.8438 27.2174 40.974 27.8164 41V29.6328C26.957 29.3203 26.1172 28.9818 25.2969 28.6172C24.4896 28.2396 23.7669 27.7643 23.1289 27.1914C22.4909 26.6185 21.9766 25.9154 21.5859 25.082C21.1953 24.2487 21 23.2201 21 21.9961V21.4688C21 20.5312 21.1758 19.6523 21.5273 18.832C21.8919 17.9987 22.3802 17.2695 22.9922 16.6445C23.6042 16.0195 24.3268 15.5247 25.1602 15.1602C25.9935 14.7956 26.8789 14.6068 27.8164 14.5938V11H29.8086V14.5938C30.7331 14.6068 31.6055 14.8021 32.4258 15.1797C33.2461 15.5443 33.9622 16.0391 34.5742 16.6641C35.1862 17.276 35.668 17.9987 36.0195 18.832C36.3841 19.6523 36.5664 20.5312 36.5664 21.4688V22.1914L34.0469 22.6016V21.4688C34.0469 20.8698 33.9362 20.3034 33.7148 19.7695C33.4935 19.2357 33.194 18.7734 32.8164 18.3828C32.4388 17.9792 31.9896 17.6536 31.4688 17.4062C30.9479 17.1589 30.3945 17.0221 29.8086 16.9961V27.8359C30.6549 28.1615 31.4948 28.5195 32.3281 28.9102C33.1615 29.3008 33.9036 29.7891 34.5547 30.375C35.2188 30.9609 35.7526 31.6836 36.1562 32.543C36.5599 33.3893 36.7617 34.431 36.7617 35.668V36.5078C36.7617 37.4583 36.5794 38.3503 36.2148 39.1836C35.8633 40.0169 35.375 40.7461 34.75 41.3711C34.125 41.9961 33.3958 42.4909 32.5625 42.8555C31.7292 43.207 30.8372 43.3828 29.8867 43.3828H29.8086V47.7969H27.8164ZM34.2422 35.668C34.2422 34.9258 34.125 34.2812 33.8906 33.7344C33.6562 33.1745 33.3372 32.6927 32.9336 32.2891C32.543 31.8724 32.0742 31.5143 31.5273 31.2148C30.9935 30.9154 30.4206 30.6419 29.8086 30.3945V41C30.4206 41 30.9935 40.8828 31.5273 40.6484C32.0742 40.4141 32.543 40.0951 32.9336 39.6914C33.3372 39.2747 33.6562 38.7995 33.8906 38.2656C34.125 37.7188 34.2422 37.1328 34.2422 36.5078V35.668ZM23.5195 21.9961C23.5195 22.6862 23.6302 23.2917 23.8516 23.8125C24.0729 24.3203 24.3789 24.7695 24.7695 25.1602C25.1602 25.5508 25.6159 25.8958 26.1367 26.1953C26.6576 26.4948 27.2174 26.7747 27.8164 27.0352V16.9961C27.2174 17.0221 26.6576 17.1589 26.1367 17.4062C25.6159 17.6536 25.1602 17.9792 24.7695 18.3828C24.3789 18.7734 24.0729 19.2357 23.8516 19.7695C23.6302 20.3034 23.5195 20.8698 23.5195 21.4688V21.9961Z" fill="white"/>
<path d="M38 7L19 51" stroke="#FF6060" stroke-width="3"/>
</svg>
