<svg width="62" height="62" viewBox="0 0 62 62" fill="none" xmlns="http://www.w3.org/2000/svg">
<circle cx="31" cy="31" r="29" fill="#333333" stroke="white" stroke-width="3"/>
<circle cx="31" cy="31" r="24" stroke="#FF6060" stroke-width="3"/>
<path d="M29.8164 49.7969V45.3828C28.8789 45.3698 27.9935 45.1875 27.1602 44.8359C26.3268 44.4714 25.6042 43.9831 24.9922 43.3711C24.3802 42.7461 23.8919 42.0169 23.5273 41.1836C23.1758 40.3503 23 39.4583 23 38.5078V37.3945L25.5195 36.9844V38.5078C25.5195 39.1198 25.6302 39.6927 25.8516 40.2266C26.0729 40.7604 26.3789 41.2292 26.7695 41.6328C27.1602 42.0365 27.6159 42.362 28.1367 42.6094C28.6576 42.8438 29.2174 42.974 29.8164 43V31.6328C28.957 31.3203 28.1172 30.9818 27.2969 30.6172C26.4896 30.2396 25.7669 29.7643 25.1289 29.1914C24.4909 28.6185 23.9766 27.9154 23.5859 27.082C23.1953 26.2487 23 25.2201 23 23.9961V23.4688C23 22.5312 23.1758 21.6523 23.5273 20.832C23.8919 19.9987 24.3802 19.2695 24.9922 18.6445C25.6042 18.0195 26.3268 17.5247 27.1602 17.1602C27.9935 16.7956 28.8789 16.6068 29.8164 16.5938V13H31.8086V16.5938C32.7331 16.6068 33.6055 16.8021 34.4258 17.1797C35.2461 17.5443 35.9622 18.0391 36.5742 18.6641C37.1862 19.276 37.668 19.9987 38.0195 20.832C38.3841 21.6523 38.5664 22.5312 38.5664 23.4688V24.1914L36.0469 24.6016V23.4688C36.0469 22.8698 35.9362 22.3034 35.7148 21.7695C35.4935 21.2357 35.194 20.7734 34.8164 20.3828C34.4388 19.9792 33.9896 19.6536 33.4688 19.4062C32.9479 19.1589 32.3945 19.0221 31.8086 18.9961V29.8359C32.6549 30.1615 33.4948 30.5195 34.3281 30.9102C35.1615 31.3008 35.9036 31.7891 36.5547 32.375C37.2188 32.9609 37.7526 33.6836 38.1562 34.543C38.5599 35.3893 38.7617 36.431 38.7617 37.668V38.5078C38.7617 39.4583 38.5794 40.3503 38.2148 41.1836C37.8633 42.0169 37.375 42.7461 36.75 43.3711C36.125 43.9961 35.3958 44.4909 34.5625 44.8555C33.7292 45.207 32.8372 45.3828 31.8867 45.3828H31.8086V49.7969H29.8164ZM36.2422 37.668C36.2422 36.9258 36.125 36.2812 35.8906 35.7344C35.6562 35.1745 35.3372 34.6927 34.9336 34.2891C34.543 33.8724 34.0742 33.5143 33.5273 33.2148C32.9935 32.9154 32.4206 32.6419 31.8086 32.3945V43C32.4206 43 32.9935 42.8828 33.5273 42.6484C34.0742 42.4141 34.543 42.0951 34.9336 41.6914C35.3372 41.2747 35.6562 40.7995 35.8906 40.2656C36.125 39.7188 36.2422 39.1328 36.2422 38.5078V37.668ZM25.5195 23.9961C25.5195 24.6862 25.6302 25.2917 25.8516 25.8125C26.0729 26.3203 26.3789 26.7695 26.7695 27.1602C27.1602 27.5508 27.6159 27.8958 28.1367 28.1953C28.6576 28.4948 29.2174 28.7747 29.8164 29.0352V18.9961C29.2174 19.0221 28.6576 19.1589 28.1367 19.4062C27.6159 19.6536 27.1602 19.9792 26.7695 20.3828C26.3789 20.7734 26.0729 21.2357 25.8516 21.7695C25.6302 22.3034 25.5195 22.8698 25.5195 23.4688V23.9961Z" fill="white"/>
<path d="M40 9.00002L21 53" stroke="#FF6060" stroke-width="3"/>
</svg>