<svg width="33" height="34" viewBox="0 0 33 34" fill="none" xmlns="http://www.w3.org/2000/svg">
<path d="M12.1335 3C15.0116 5.03767 16.4242 8.13305 16.5543 10.8445C16.6774 8.15165 18.0451 5.15027 20.8665 3C24.8719 -0.0526267 32.0945 3.50877 30.8469 11.6491C29.5994 19.7895 16.7079 31.4912 16.292 32C15.8761 31.4912 3.4006 19.7895 2.15304 11.6491C0.905484 3.50877 7.82192 -0.0526261 12.1335 3Z" fill="#E11010" stroke="white" stroke-width="3" stroke-linejoin="round"/>
<path d="M12.1335 3C15.0116 5.03767 16.4242 8.13305 16.5543 10.8445C16.6774 8.15165 18.0451 5.15027 20.8665 3C24.8719 -0.0526267 32.0945 3.50877 30.8469 11.6491C29.5994 19.7895 16.7079 31.4912 16.292 32C15.8761 31.4912 3.4006 19.7895 2.15304 11.6491C0.905484 3.50877 7.82192 -0.0526261 12.1335 3Z" fill="white" stroke="#E11010" stroke-width="3" stroke-linejoin="round"/>
</svg>
