<svg width="34" height="29" viewBox="0 0 34 29" fill="none" xmlns="http://www.w3.org/2000/svg">
<rect width="24.8108" height="3.5" rx="1.75" transform="matrix(-1 0 0 1 24.8108 5.25)" fill="#333333"/>
<rect width="13" height="3" rx="1.5" transform="matrix(-1 0 0 1 34 15)" fill="#333333"/>
<rect width="18" height="3" rx="1.5" transform="matrix(1.25234e-08 -1 -1 -1.13549e-08 34 18)" fill="#333333"/>
<rect width="13" height="2" rx="1" transform="matrix(1.25234e-08 -1 -1 -1.13549e-08 25 29)" fill="#333333"/>
<rect width="13" height="2" rx="1" transform="matrix(1.25234e-08 -1 -1 -1.13549e-08 33 29)" fill="#333333"/>
<rect width="11" height="3" rx="1.5" transform="matrix(-1 0 0 1 18 26)" fill="#333333"/>
<rect width="3" height="20" rx="1.5" transform="matrix(-1 0 0 1 14 7)" fill="#333333"/>
</svg>
