<svg width="12" height="19" viewBox="0 0 12 19" fill="none" xmlns="http://www.w3.org/2000/svg">
<path fill-rule="evenodd" clip-rule="evenodd" d="M11.4803 5.5L11.4804 5.50001C11.4803 7.06703 10.7964 8.48098 9.69892 9.48277L5.74019 18.3333L1.78145 9.48278C0.683962 8.481 3.05249e-06 7.06704 0 5.50001V5.5C0 2.46243 2.56996 0 5.74017 0C8.91039 0 11.4803 2.46243 11.4803 5.5ZM5.74016 7.94443C7.14914 7.94443 8.29135 6.85002 8.29135 5.49999C8.29135 4.14996 7.14914 3.05554 5.74016 3.05554C4.33118 3.05554 3.18897 4.14996 3.18897 5.49999C3.18897 6.85002 4.33118 7.94443 5.74016 7.94443Z" fill="#333333"/>
</svg>
