<svg width="39" height="27" viewBox="0 0 39 27" fill="none" xmlns="http://www.w3.org/2000/svg">
<rect width="10" height="1.81395" rx="0.906977" transform="matrix(1.13585e-08 -1 -1 -1.25196e-08 3.62793 27)" fill="#333333"/>
<rect width="10" height="1.81395" rx="0.906977" transform="matrix(1.13585e-08 -1 -1 -1.25196e-08 37.186 27)" fill="#333333"/>
<rect x="3.62793" width="31.7442" height="2" fill="#333333"/>
<rect x="3.62793" y="4" width="31.7442" height="2" fill="#333333"/>
<rect x="3.62793" y="8" width="31.7442" height="2" fill="#333333"/>
<path d="M3.91945 13H35.0806L36.2791 15H2.72095L3.91945 13Z" fill="#333333"/>
<path d="M1.27833 15H37.7217L39 19H0L1.27833 15Z" fill="#333333"/>
<line x1="7.10913" x2="7.10913" y2="13" stroke="#333333" stroke-width="2"/>
<line x1="31" x2="31" y2="13" stroke="#333333" stroke-width="2"/>
<path d="M7.60913 13.4393L6 17.4393" stroke="#333333" stroke-width="2"/>
<line y1="-1" x2="4.31153" y2="-1" transform="matrix(0.373216 0.927745 0.898333 -0.439315 31.8372 14)" stroke="#333333" stroke-width="2"/>
</svg>
