<svg width="22" height="31" viewBox="0 0 22 31" fill="none" xmlns="http://www.w3.org/2000/svg">
<path d="M7.65217 2C7.65217 0.89543 6.75674 0 5.65217 0H2C0.89543 0 0 0.895431 0 2V16C0 17.1046 0.89543 18 2 18H5.65217C6.75674 18 7.65217 17.1046 7.65217 16V2Z" fill="#333333"/>
<path d="M22 16C22 15.4477 21.5523 15 21 15H4.8261C4.27382 15 3.8261 15.4477 3.8261 16C3.8261 16.5523 4.27381 17 4.8261 17H21C21.5523 17 22 16.5523 22 16Z" fill="#333333"/>
<path d="M14.3479 19C14.3479 17.8954 13.4524 17 12.3479 17H2.95655C1.85198 17 0.956549 17.8954 0.956549 19V22C0.956549 23.1046 1.85198 24 2.95655 24H12.3479C13.4524 24 14.3479 23.1046 14.3479 22V19Z" fill="#333333"/>
<path d="M11.4783 19C11.4783 17.8954 10.5829 17 9.47828 17H4.86959C3.76502 17 2.86959 17.8954 2.86959 19V29C2.86959 30.1046 3.76502 31 4.86959 31H9.47829C10.5829 31 11.4783 30.1046 11.4783 29V19Z" fill="#333333"/>
<path d="M16.2609 30C16.2609 29.4477 15.8132 29 15.2609 29H1.95653C1.40424 29 0.95653 29.4477 0.95653 30C0.95653 30.5523 1.40424 31 1.95653 31H15.2609C15.8132 31 16.2609 30.5523 16.2609 30Z" fill="#333333"/>
<path d="M20.0403 17C20.0711 17.1642 20.087 17.331 20.087 17.5C20.087 19.9853 16.661 22 12.4348 22C8.20864 22 4.78264 19.9853 4.78264 17.5C4.78264 17.331 4.79848 17.1642 4.82934 17H20.0403Z" fill="#333333"/>
</svg>
