<svg width="62" height="62" viewBox="0 0 62 62" fill="none" xmlns="http://www.w3.org/2000/svg">
<g opacity="0.5">
<circle cx="31" cy="31" r="29" fill="#333333" stroke="white" stroke-width="3"/>
<path fill-rule="evenodd" clip-rule="evenodd" d="M36 14C36 16.7614 33.7614 19 31 19C28.2386 19 26 16.7614 26 14C26 11.2386 28.2386 9 31 9C33.7614 9 36 11.2386 36 14ZM36.7218 25.6778L35.7525 28.2161C35.3137 29.3649 35.3137 30.6351 35.7525 31.7839L36.0608 32.5912L43 43H37V50.3503C37 51.2614 36.2614 52 35.3503 52H34.6497C33.7386 52 33 51.2614 33 50.3503L33 44V21.1609H35.7372C36.0458 21.1609 36.3347 21.2456 36.5817 21.3931C36.7856 21.4788 36.9714 21.6154 37.1187 21.8006L43.511 29.8352C43.9794 30.424 43.8819 31.281 43.2931 31.7494C42.7044 32.2178 41.8474 32.1202 41.379 31.5315L36.7218 25.6778ZM29 21.1609L29 43V50.3503C29 51.2614 28.2614 52 27.3503 52H26.6497C25.7386 52 25 51.2614 25 50.3503V37.7525V37.6497V26.5777L20.9744 31.6375C20.5092 32.2223 19.6579 32.3192 19.0731 31.854C18.4883 31.3887 18.3914 30.5375 18.8567 29.9527L25.2604 21.9037C25.2799 21.8792 25.3 21.8556 25.3209 21.8328C25.6212 21.4253 26.1046 21.1609 26.6497 21.1609H29Z" fill="white"/>
</g>
</svg>