<svg width="58" height="58" viewBox="0 0 58 58" fill="none" xmlns="http://www.w3.org/2000/svg">
<circle cx="29" cy="29" r="29" fill="#333333"/>
<path fill-rule="evenodd" clip-rule="evenodd" d="M34 12C34 14.7614 31.7614 17 29 17C26.2386 17 24 14.7614 24 12C24 9.23858 26.2386 7 29 7C31.7614 7 34 9.23858 34 12ZM34.7218 23.6778L33.7525 26.2161C33.3137 27.3649 33.3137 28.6351 33.7525 29.7839L34.0608 30.5912L41 41H35V48.3503C35 49.2614 34.2614 50 33.3503 50H32.6497C31.7386 50 31 49.2614 31 48.3503L31 42V19.1609H33.7372C34.0458 19.1609 34.3347 19.2456 34.5817 19.3931C34.7856 19.4788 34.9714 19.6154 35.1187 19.8006L41.511 27.8352C41.9794 28.424 41.8819 29.281 41.2931 29.7494C40.7044 30.2178 39.8474 30.1202 39.379 29.5315L34.7218 23.6778ZM27 19.1609L27 41V48.3503C27 49.2614 26.2614 50 25.3503 50H24.6497C23.7386 50 23 49.2614 23 48.3503V35.7525V35.6497V24.5777L18.9744 29.6375C18.5092 30.2223 17.6579 30.3192 17.0731 29.854C16.4883 29.3887 16.3914 28.5375 16.8567 27.9527L23.2604 19.9037C23.2799 19.8792 23.3 19.8556 23.3209 19.8328C23.6212 19.4253 24.1046 19.1609 24.6497 19.1609H27Z" fill="white"/>
</svg>
