<svg width="31" height="37" viewBox="0 0 31 37" fill="none" xmlns="http://www.w3.org/2000/svg">
<path d="M15.9351 17.4036C15.6435 16.7426 16.1276 16 16.8501 16H30.3159V28H21.9136C21.1213 28 20.4036 27.5322 20.0838 26.8073L15.9351 17.4036Z" fill="#333333"/>
<ellipse cx="22.579" cy="10.8235" rx="0.894737" ry="0.911765" fill="#333333"/>
<ellipse cx="19.8949" cy="9.91177" rx="0.894737" ry="0.911765" fill="#333333"/>
<ellipse cx="17.2106" cy="11.7353" rx="0.894737" ry="0.911765" fill="#333333"/>
<ellipse cx="24.3685" cy="12.6471" rx="0.894737" ry="0.911765" fill="#333333"/>
<rect x="26.158" y="13.5588" width="1.78947" height="3.64706" fill="#333333"/>
<rect x="5.59457" y="7.93826" width="7.74301" height="14.564" rx="1" transform="rotate(22.5903 5.59457 7.93826)" fill="#333333"/>
<circle cx="12.8159" cy="4.5" r="4.5" fill="#333333"/>
<rect x="0.315887" y="20" width="3" height="17" rx="1" fill="#333333"/>
<rect x="5.31589" y="20" width="3" height="17" rx="1" fill="#333333"/>
<rect x="9.9628" y="11.1459" width="2.26703" height="11.033" rx="1" transform="rotate(-16.5105 9.9628 11.1459)" fill="#333333"/>
</svg>
