<svg width="62" height="62" viewBox="0 0 62 62" fill="none" xmlns="http://www.w3.org/2000/svg">
<g opacity="0.5">
<circle cx="31.3267" cy="31" r="29" fill="#333333" stroke="white" stroke-width="3"/>
<path fill-rule="evenodd" clip-rule="evenodd" d="M30.3267 15C32.5359 15 34.3267 13.2091 34.3267 11C34.3267 8.79086 32.5359 7 30.3267 7C28.1176 7 26.3267 8.79086 26.3267 11C26.3267 13.2091 28.1176 15 30.3267 15ZM26.3267 19C26.3267 17.8954 27.2222 17 28.3267 17H31.3267C32.4313 17 33.3267 17.8954 33.3267 19V28H43.3267C44.1244 28 44.8131 28.467 45.1341 29.1426C45.2498 29.3021 45.3436 29.4815 45.4099 29.6779L49.3643 41.3977C49.7174 42.4443 49.1552 43.579 48.1086 43.9321L47.7372 44.0574C46.6906 44.4106 45.5559 43.8484 45.2027 42.8018L42.2329 34H31.3267H30.3267H28.3267C27.2222 34 26.3267 33.1046 26.3267 32V19ZM36.66 36.6111C36.66 41.9805 32.3073 46.3333 26.9378 46.3333C21.5684 46.3333 17.2156 41.9805 17.2156 36.6111C17.2156 32.1462 20.2254 28.3843 24.3267 27.2435V23.2502C18.0587 24.468 13.3267 29.987 13.3267 36.6111C13.3267 44.1283 19.4206 50.2222 26.9378 50.2222C34.455 50.2222 40.5489 44.1283 40.5489 36.6111C40.5489 36.4063 40.5444 36.2026 40.5355 36H36.6412C36.6537 36.2021 36.66 36.4059 36.66 36.6111Z" fill="white"/>
</g>
</svg>