<svg width="58" height="58" viewBox="0 0 58 58" fill="none" xmlns="http://www.w3.org/2000/svg">
<circle cx="29" cy="29" r="29" fill="#333333"/>
<path fill-rule="evenodd" clip-rule="evenodd" d="M28 13C30.2091 13 32 11.2091 32 9C32 6.79086 30.2091 5 28 5C25.7909 5 24 6.79086 24 9C24 11.2091 25.7909 13 28 13ZM24 17C24 15.8954 24.8954 15 26 15H29C30.1046 15 31 15.8954 31 17V26H41C41.7977 26 42.4864 26.467 42.8074 27.1426C42.923 27.3021 43.0169 27.4815 43.0832 27.6779L47.0375 39.3977C47.3907 40.4443 46.8285 41.579 45.7819 41.9321L45.4105 42.0574C44.3639 42.4106 43.2292 41.8484 42.876 40.8018L39.9062 32H29H28H26C24.8954 32 24 31.1046 24 30V17ZM34.3333 34.6111C34.3333 39.9805 29.9805 44.3333 24.6111 44.3333C19.2417 44.3333 14.8889 39.9805 14.8889 34.6111C14.8889 30.1462 17.8987 26.3843 22 25.2435V21.2502C15.732 22.468 11 27.987 11 34.6111C11 42.1283 17.0939 48.2222 24.6111 48.2222C32.1283 48.2222 38.2222 42.1283 38.2222 34.6111C38.2222 34.4063 38.2177 34.2026 38.2087 34H34.3144C34.327 34.2021 34.3333 34.4059 34.3333 34.6111Z" fill="white"/>
</svg>
